<?xml version="1.0" encoding="UTF-8"?><svg id="a" xmlns="http://www.w3.org/2000/svg" viewBox="0 0 2855.24 757.3"><defs><style>.b{fill:#fff;}.c{fill:none;stroke:#000;stroke-miterlimit:10;}.d{fill:#e06420;}</style></defs><path class="c" d="M76.3,299.74H21.59c-11.65,0-21.09,9.44-21.09,21.09v37.94c0,11.65,9.44,21.09,21.09,21.09h54.71"/><g><path d="M93.21,324.86v-34.27h.05l15.94,22.66h-.43l15.94-22.66h.05v34.27h-.96v-31.92l.1,.38-14.88,20.98h-.1l-14.88-20.98,.14-.34v31.87h-.96Z"/><path d="M137.04,324.86l13.97-35.23h.1l13.97,35.23h-1.06l-13.25-33.65,.62-.14-13.39,33.79h-.96Zm5.81-13.49h16.46l.1,.86h-16.66l.1-.86Z"/><path d="M172.03,291.16h21.89v.91h-10.46v32.78h-.96v-32.78h-10.46v-.91Z"/><path d="M206.11,291.16h20.11v.91h-19.15v15.31h17.28v.91h-17.28v15.65h19.82v.91h-20.78v-33.7Z"/><path d="M237.84,308.06c0-2.37,.45-4.6,1.34-6.7,.9-2.1,2.13-3.94,3.7-5.52s3.39-2.82,5.47-3.72c2.08-.9,4.3-1.34,6.67-1.34s4.59,.45,6.67,1.34c2.08,.9,3.91,2.14,5.5,3.72s2.83,3.42,3.74,5.52c.91,2.1,1.37,4.33,1.37,6.7s-.46,4.59-1.37,6.67c-.91,2.08-2.16,3.9-3.74,5.47s-3.42,2.8-5.5,3.7c-2.08,.9-4.3,1.34-6.67,1.34s-4.59-.42-6.67-1.27c-2.08-.85-3.9-2.04-5.47-3.58-1.57-1.54-2.8-3.35-3.7-5.45-.9-2.1-1.34-4.39-1.34-6.89Zm.96,.05c0,2.24,.42,4.34,1.25,6.31,.83,1.97,1.98,3.7,3.46,5.18,1.47,1.49,3.18,2.65,5.14,3.48,1.95,.83,4.03,1.25,6.24,1.25s4.4-.42,6.38-1.25c1.98-.83,3.73-1.99,5.23-3.48,1.5-1.49,2.69-3.22,3.55-5.18,.86-1.97,1.3-4.09,1.3-6.36s-.43-4.34-1.3-6.31c-.86-1.97-2.04-3.7-3.53-5.21-1.49-1.5-3.22-2.69-5.18-3.55-1.97-.86-4.07-1.3-6.31-1.3s-4.44,.44-6.41,1.32c-1.97,.88-3.69,2.09-5.16,3.62-1.47,1.54-2.62,3.29-3.43,5.26-.82,1.97-1.22,4.04-1.22,6.22Z"/><path d="M118.08,380.39c-.64,.35-1.35,.68-2.14,.98-.78,.3-1.62,.57-2.5,.79-.88,.22-1.76,.39-2.64,.5-.88,.11-1.74,.17-2.57,.17-2.59,0-4.95-.44-7.08-1.32-2.13-.88-3.94-2.1-5.45-3.67-1.5-1.57-2.66-3.39-3.46-5.47-.8-2.08-1.2-4.3-1.2-6.67s.45-4.65,1.34-6.74c.9-2.1,2.13-3.94,3.7-5.52s3.39-2.82,5.47-3.72c2.08-.9,4.3-1.34,6.67-1.34,1.63,0,3.19,.22,4.68,.65,1.49,.43,2.89,1.03,4.2,1.8l-.48,.82c-.8-.48-1.66-.9-2.57-1.25-.91-.35-1.86-.62-2.83-.82-.98-.19-1.96-.29-2.95-.29-2.27,0-4.39,.43-6.36,1.3-1.97,.86-3.7,2.05-5.18,3.55-1.49,1.5-2.65,3.25-3.48,5.23-.83,1.98-1.25,4.1-1.25,6.34s.38,4.38,1.13,6.34c.75,1.95,1.83,3.67,3.24,5.16,1.41,1.49,3.1,2.65,5.09,3.48,1.98,.83,4.21,1.25,6.67,1.25,1.44,0,2.99-.18,4.66-.55,1.66-.37,3.1-.9,4.32-1.61v-10.99h-8.16v-.91h9.12v12.53Z"/><path d="M129.4,382.46l13.97-35.23h.1l13.97,35.23h-1.06l-13.25-33.65,.62-.14-13.39,33.79h-.96Zm5.81-13.49h16.46l.1,.86h-16.66l.1-.86Z"/><path d="M169.72,348.76h.96v32.78h19.3v.91h-20.26v-33.7Z"/><path d="M201.69,348.76h20.11v.91h-19.15v15.31h17.28v.91h-17.28v15.65h19.82v.91h-20.78v-33.7Z"/><path d="M232.89,382.46l13.97-35.23h.1l13.97,35.23h-1.06l-13.25-33.65,.62-.14-13.39,33.79h-.96Zm5.81-13.49h16.46l.1,.86h-16.66l.1-.86Z"/><path d="M300.76,383.08l-26.88-32.59,.24-.48,.05,32.45h-.96v-34.22h.05l27.12,32.93-.48-.05v-32.35h.91v34.32h-.05Z"/><path d="M313.67,365.66c0-2.37,.45-4.6,1.34-6.7,.9-2.1,2.13-3.94,3.7-5.52s3.39-2.82,5.47-3.72c2.08-.9,4.3-1.34,6.67-1.34s4.59,.45,6.67,1.34c2.08,.9,3.91,2.14,5.5,3.72s2.83,3.42,3.74,5.52c.91,2.1,1.37,4.33,1.37,6.7s-.46,4.59-1.37,6.67c-.91,2.08-2.16,3.9-3.74,5.47s-3.42,2.8-5.5,3.7c-2.08,.9-4.3,1.34-6.67,1.34s-4.59-.42-6.67-1.27c-2.08-.85-3.9-2.04-5.47-3.58-1.57-1.54-2.8-3.35-3.7-5.45-.9-2.1-1.34-4.39-1.34-6.89Zm.96,.05c0,2.24,.42,4.34,1.25,6.31,.83,1.97,1.98,3.7,3.46,5.18,1.47,1.49,3.18,2.65,5.14,3.48,1.95,.83,4.03,1.25,6.24,1.25s4.4-.42,6.38-1.25c1.98-.83,3.73-1.99,5.23-3.48,1.5-1.49,2.69-3.22,3.55-5.18,.86-1.97,1.3-4.09,1.3-6.36s-.43-4.34-1.3-6.31c-.86-1.97-2.04-3.7-3.53-5.21-1.49-1.5-3.22-2.69-5.18-3.55-1.97-.86-4.07-1.3-6.31-1.3s-4.44,.44-6.41,1.32c-1.97,.88-3.69,2.09-5.16,3.62-1.47,1.54-2.62,3.29-3.43,5.26-.82,1.97-1.22,4.04-1.22,6.22Z"/></g><g><path d="M2593.21,309.86v-34.27h.05l15.94,22.66h-.43l15.94-22.66h.05v34.27h-.96v-31.92l.1,.38-14.88,20.98h-.1l-14.88-20.98,.14-.34v31.87h-.96Z"/><path d="M2637.04,309.86l13.97-35.23h.1l13.97,35.23h-1.06l-13.25-33.65,.62-.14-13.39,33.79h-.96Zm5.81-13.49h16.46l.1,.86h-16.66l.1-.86Z"/><path d="M2672.03,276.16h21.89v.91h-10.46v32.78h-.96v-32.78h-10.46v-.91Z"/><path d="M2706.11,276.16h20.11v.91h-19.15v15.31h17.28v.91h-17.28v15.65h19.82v.91h-20.79v-33.7Z"/><path d="M2737.84,293.06c0-2.37,.45-4.6,1.34-6.7,.9-2.1,2.13-3.94,3.7-5.52,1.57-1.58,3.39-2.82,5.47-3.72,2.08-.9,4.3-1.34,6.67-1.34s4.59,.45,6.67,1.34c2.08,.9,3.91,2.14,5.5,3.72s2.83,3.42,3.74,5.52c.91,2.1,1.37,4.33,1.37,6.7s-.46,4.59-1.37,6.67c-.91,2.08-2.16,3.9-3.74,5.47s-3.42,2.8-5.5,3.7c-2.08,.9-4.3,1.34-6.67,1.34s-4.59-.42-6.67-1.27c-2.08-.85-3.9-2.04-5.47-3.58-1.57-1.54-2.8-3.35-3.7-5.45-.9-2.1-1.34-4.39-1.34-6.89Zm.96,.05c0,2.24,.42,4.34,1.25,6.31,.83,1.97,1.98,3.7,3.46,5.18,1.47,1.49,3.18,2.65,5.14,3.48,1.95,.83,4.03,1.25,6.24,1.25s4.4-.42,6.38-1.25c1.98-.83,3.73-1.99,5.23-3.48,1.5-1.49,2.69-3.22,3.55-5.18,.87-1.97,1.3-4.09,1.3-6.36s-.43-4.34-1.3-6.31c-.86-1.97-2.04-3.7-3.53-5.21-1.49-1.5-3.22-2.69-5.18-3.55-1.97-.86-4.07-1.3-6.31-1.3s-4.44,.44-6.41,1.32c-1.97,.88-3.69,2.09-5.16,3.62-1.47,1.54-2.62,3.29-3.43,5.26-.82,1.97-1.22,4.04-1.22,6.22Z"/><path d="M2618.08,365.39c-.64,.35-1.35,.68-2.14,.98-.78,.3-1.62,.57-2.5,.79-.88,.22-1.76,.39-2.64,.5-.88,.11-1.74,.17-2.57,.17-2.59,0-4.95-.44-7.08-1.32-2.13-.88-3.94-2.1-5.45-3.67-1.5-1.57-2.66-3.39-3.46-5.47-.8-2.08-1.2-4.3-1.2-6.67s.45-4.65,1.34-6.74c.89-2.1,2.13-3.94,3.7-5.52s3.39-2.82,5.47-3.72c2.08-.9,4.3-1.34,6.67-1.34,1.63,0,3.19,.22,4.68,.65,1.49,.43,2.89,1.03,4.2,1.8l-.48,.82c-.8-.48-1.66-.9-2.57-1.25-.91-.35-1.86-.62-2.83-.82-.98-.19-1.96-.29-2.95-.29-2.27,0-4.39,.43-6.36,1.3-1.97,.86-3.7,2.05-5.18,3.55-1.49,1.5-2.65,3.25-3.48,5.23-.83,1.98-1.25,4.1-1.25,6.34s.38,4.38,1.13,6.34c.75,1.95,1.83,3.67,3.24,5.16,1.41,1.49,3.1,2.65,5.09,3.48,1.98,.83,4.21,1.25,6.67,1.25,1.44,0,2.99-.18,4.66-.55,1.66-.37,3.1-.9,4.32-1.61v-10.99h-8.16v-.91h9.12v12.53Z"/><path d="M2629.4,367.46l13.97-35.23h.1l13.97,35.23h-1.06l-13.25-33.65,.62-.14-13.39,33.79h-.96Zm5.81-13.49h16.46l.1,.86h-16.66l.1-.86Z"/><path d="M2669.72,333.76h.96v32.78h19.29v.91h-20.26v-33.7Z"/><path d="M2701.69,333.76h20.11v.91h-19.15v15.31h17.28v.91h-17.28v15.65h19.82v.91h-20.78v-33.7Z"/><path d="M2732.89,367.46l13.97-35.23h.1l13.97,35.23h-1.06l-13.25-33.65,.62-.14-13.39,33.79h-.96Zm5.81-13.49h16.46l.1,.86h-16.66l.1-.86Z"/><path d="M2800.76,368.08l-26.88-32.59,.24-.48,.05,32.45h-.96v-34.22h.05l27.12,32.93-.48-.05v-32.35h.91v34.32h-.05Z"/><path d="M2813.67,350.66c0-2.37,.45-4.6,1.34-6.7,.9-2.1,2.13-3.94,3.7-5.52s3.39-2.82,5.47-3.72c2.08-.9,4.3-1.34,6.67-1.34s4.59,.45,6.67,1.34c2.08,.9,3.91,2.14,5.5,3.72s2.83,3.42,3.74,5.52c.91,2.1,1.37,4.33,1.37,6.7s-.46,4.59-1.37,6.67c-.91,2.08-2.16,3.9-3.74,5.47s-3.42,2.8-5.5,3.7c-2.08,.9-4.3,1.34-6.67,1.34s-4.59-.42-6.67-1.27c-2.08-.85-3.9-2.04-5.47-3.58-1.57-1.54-2.8-3.35-3.7-5.45-.9-2.1-1.34-4.39-1.34-6.89Zm.96,.05c0,2.24,.42,4.34,1.25,6.31,.83,1.97,1.98,3.7,3.46,5.18,1.47,1.49,3.18,2.65,5.14,3.48,1.95,.83,4.03,1.25,6.24,1.25s4.4-.42,6.38-1.25c1.98-.83,3.73-1.99,5.23-3.48,1.5-1.49,2.69-3.22,3.55-5.18,.86-1.97,1.3-4.09,1.3-6.36s-.43-4.34-1.3-6.31c-.86-1.97-2.04-3.7-3.53-5.21-1.49-1.5-3.21-2.69-5.18-3.55-1.97-.86-4.07-1.3-6.31-1.3s-4.44,.44-6.41,1.32c-1.97,.88-3.69,2.09-5.16,3.62-1.47,1.54-2.62,3.29-3.43,5.26-.82,1.97-1.22,4.04-1.22,6.22Z"/></g><path d="M33.93,339.85c0-2.65,.5-5.15,1.5-7.5,1-2.35,2.38-4.41,4.14-6.18s3.8-3.16,6.13-4.16c2.33-1,4.82-1.5,7.47-1.5s5.14,.5,7.47,1.5c2.33,1,4.38,2.39,6.15,4.16s3.17,3.83,4.19,6.18c1.02,2.35,1.53,4.85,1.53,7.5s-.51,5.14-1.53,7.47c-1.02,2.33-2.42,4.37-4.19,6.13s-3.82,3.14-6.15,4.14c-2.33,1-4.82,1.5-7.47,1.5s-5.14-.47-7.47-1.42c-2.33-.95-4.37-2.28-6.13-4-1.76-1.72-3.14-3.75-4.14-6.1-1-2.35-1.5-4.92-1.5-7.71Zm1.08,.05c0,2.51,.47,4.86,1.4,7.07,.93,2.2,2.22,4.14,3.87,5.8,1.65,1.67,3.56,2.96,5.75,3.9,2.18,.93,4.51,1.4,6.99,1.4s4.93-.47,7.15-1.4c2.22-.93,4.17-2.23,5.86-3.9,1.68-1.67,3.01-3.6,3.98-5.8,.97-2.2,1.45-4.58,1.45-7.12s-.48-4.86-1.45-7.07c-.97-2.2-2.28-4.15-3.95-5.83-1.67-1.68-3.6-3.01-5.8-3.98-2.2-.97-4.56-1.45-7.07-1.45s-4.97,.49-7.17,1.48c-2.2,.99-4.13,2.34-5.78,4.06-1.65,1.72-2.93,3.68-3.84,5.88-.91,2.2-1.37,4.52-1.37,6.96Z"/><rect class="b" x="60.5" y="287.21" width="16" height="97"/><line class="c" x1="63" y1="280.8" x2="63" y2="398.8"/><path d="M181.15,566.4v-34.27h.05l15.94,22.66h-.43l15.94-22.66h.05v34.27h-.96v-31.92l.1,.38-14.88,20.98h-.1l-14.88-20.98,.14-.34v31.87h-.96Z"/><path d="M124.44,580.16c0-2.37,.45-4.6,1.34-6.7,.9-2.09,2.13-3.94,3.7-5.52s3.39-2.82,5.47-3.72c2.08-.9,4.3-1.34,6.67-1.34s4.59,.45,6.67,1.34c2.08,.9,3.91,2.14,5.5,3.72s2.83,3.42,3.74,5.52c.91,2.1,1.37,4.33,1.37,6.7s-.46,4.59-1.37,6.67c-.91,2.08-2.16,3.9-3.74,5.47-1.58,1.57-3.42,2.8-5.5,3.7-2.08,.9-4.3,1.34-6.67,1.34s-4.59-.42-6.67-1.27c-2.08-.85-3.9-2.04-5.47-3.58s-2.8-3.35-3.7-5.45c-.9-2.09-1.34-4.39-1.34-6.89Zm.96,.05c0,2.24,.42,4.34,1.25,6.31,.83,1.97,1.98,3.7,3.46,5.18,1.47,1.49,3.18,2.65,5.14,3.48,1.95,.83,4.03,1.25,6.24,1.25s4.4-.42,6.38-1.25c1.98-.83,3.73-1.99,5.23-3.48,1.5-1.49,2.69-3.22,3.55-5.18,.86-1.97,1.3-4.09,1.3-6.36s-.43-4.34-1.3-6.31c-.86-1.97-2.04-3.7-3.53-5.21-1.49-1.5-3.22-2.69-5.18-3.55-1.97-.86-4.07-1.3-6.31-1.3s-4.44,.44-6.41,1.32c-1.97,.88-3.69,2.09-5.16,3.62-1.47,1.54-2.62,3.29-3.43,5.26s-1.22,4.04-1.22,6.22Z"/><path d="M141.3,545.14v.96h-32.78v19.3h-.91v-20.26h33.7Z"/><rect class="b" x="149.89" y="560.76" width="16" height="37"/><path d="M107.61,616.93v-20.26h.91v19.3h32.78v.96h-33.7Z"/><line class="c" x1="152.39" y1="522.12" x2="152.39" y2="640.12"/><path d="M209.37,623.25c-.67,.37-1.41,.71-2.23,1.03-.82,.32-1.68,.59-2.6,.83-.92,.23-1.83,.41-2.75,.52-.92,.12-1.81,.17-2.67,.17-2.7,0-5.16-.46-7.38-1.38-2.22-.92-4.11-2.19-5.68-3.82-1.57-1.63-2.77-3.53-3.6-5.7-.83-2.17-1.25-4.48-1.25-6.95s.47-4.84,1.4-7.03c.93-2.18,2.22-4.1,3.85-5.75,1.63-1.65,3.53-2.94,5.7-3.88,2.17-.93,4.48-1.4,6.95-1.4,1.7,0,3.32,.22,4.88,.67,1.55,.45,3.01,1.08,4.38,1.88l-.5,.85c-.83-.5-1.73-.93-2.68-1.3-.95-.37-1.93-.65-2.95-.85-1.02-.2-2.04-.3-3.08-.3-2.37,0-4.57,.45-6.62,1.35-2.05,.9-3.85,2.13-5.4,3.7-1.55,1.57-2.76,3.38-3.62,5.45-.87,2.07-1.3,4.27-1.3,6.6s.39,4.57,1.17,6.6c.78,2.03,1.91,3.83,3.38,5.38,1.47,1.55,3.23,2.76,5.3,3.62,2.07,.87,4.38,1.3,6.95,1.3,1.5,0,3.12-.19,4.85-.58,1.73-.38,3.23-.94,4.5-1.67v-11.45h-8.5v-.95h9.5v13.05Z"/><path class="c" d="M19.85,299.74v-3.22c0-1.27,1.03-2.31,2.31-2.31h7.39c1.27,0,2.31,1.03,2.31,2.31v3.22"/><g><path d="M2188.16,28.23c-.41,.23-.87,.44-1.38,.63-.51,.2-1.04,.37-1.61,.51-.57,.14-1.14,.25-1.7,.32-.57,.07-1.12,.11-1.66,.11-1.67,0-3.19-.28-4.56-.85-1.37-.57-2.54-1.36-3.51-2.37-.97-1.01-1.71-2.19-2.23-3.53-.52-1.34-.77-2.77-.77-4.3s.29-3,.87-4.35c.58-1.35,1.37-2.54,2.38-3.56,1.01-1.02,2.19-1.82,3.53-2.4,1.34-.58,2.77-.87,4.3-.87,1.05,0,2.06,.14,3.02,.42,.96,.28,1.86,.67,2.71,1.16l-.31,.53c-.52-.31-1.07-.58-1.66-.8-.59-.23-1.2-.4-1.83-.53-.63-.12-1.26-.19-1.9-.19-1.47,0-2.83,.28-4.1,.84-1.27,.56-2.38,1.32-3.34,2.29-.96,.97-1.71,2.09-2.24,3.37-.54,1.28-.8,2.64-.8,4.08s.24,2.83,.73,4.08c.48,1.26,1.18,2.37,2.09,3.33,.91,.96,2,1.71,3.28,2.24,1.28,.54,2.71,.8,4.3,.8,.93,0,1.93-.12,3-.36,1.07-.24,2-.58,2.79-1.04v-7.09h-5.26v-.59h5.88v8.08Z"/><path d="M2200.87,29.56l9-22.71h.06l9.01,22.71h-.68l-8.54-21.69,.4-.09-8.63,21.79h-.62Z"/><path d="M2232.5,7.84h.61V28.97h12.23v.59h-12.84V7.84Z"/><path d="M2258.31,7.84h12.97v.59h-12.35v9.87h11.14v.59h-11.14v10.09h12.78v.59h-13.4V7.84Z"/><path d="M2283.84,29.56l9-22.71h.06l9.01,22.71h-.68l-8.54-21.69,.4-.09-8.63,21.79h-.62Z"/><path d="M2333.01,29.96l-17.33-21.01,.15-.31,.03,20.92h-.62V7.5h.03l17.48,21.23-.31-.03V7.84h.59V29.96h-.03Z"/><path d="M2346.75,18.73c0-1.53,.29-2.97,.87-4.32,.58-1.35,1.37-2.54,2.38-3.56,1.01-1.02,2.19-1.82,3.53-2.4,1.34-.58,2.77-.87,4.3-.87s2.96,.29,4.3,.87c1.34,.58,2.52,1.38,3.54,2.4s1.83,2.21,2.41,3.56c.59,1.35,.88,2.79,.88,4.32s-.29,2.96-.88,4.3c-.59,1.34-1.39,2.52-2.41,3.53s-2.2,1.81-3.54,2.38c-1.34,.58-2.78,.87-4.3,.87s-2.96-.27-4.3-.82c-1.34-.55-2.52-1.32-3.53-2.31-1.01-.99-1.81-2.16-2.38-3.51-.58-1.35-.87-2.83-.87-4.44Zm.62,.03c0,1.44,.27,2.8,.8,4.07,.54,1.27,1.28,2.38,2.23,3.34,.95,.96,2.05,1.71,3.31,2.24,1.26,.54,2.6,.8,4.02,.8s2.84-.27,4.12-.8c1.28-.54,2.4-1.28,3.37-2.24,.97-.96,1.73-2.07,2.29-3.34,.56-1.27,.84-2.64,.84-4.1s-.28-2.8-.84-4.07c-.56-1.27-1.31-2.39-2.27-3.36-.96-.97-2.07-1.73-3.34-2.29-1.27-.56-2.63-.84-4.07-.84s-2.86,.28-4.13,.85c-1.27,.57-2.38,1.35-3.33,2.34-.95,.99-1.69,2.12-2.21,3.39-.53,1.27-.79,2.6-.79,4.01Z"/></g><g><path d="M2376.73,29.26h-.37v7.38h-7.52v.36h7.89v-7.73Z"/><path d="M2339.34,7.73h.37V.36h7.52v-.36h-7.89V7.73Z"/><path d="M2339.34,29.26h.37v7.38h7.52v.36h-7.89v-7.73Z"/><path d="M2369,0V.37h7.38V7.89h.36V0h-7.73Z"/></g><g><path d="M2258.28,474.46c-3.73,2.05-7.87,3.96-12.43,5.73-4.57,1.77-9.41,3.31-14.53,4.61-5.12,1.31-10.25,2.28-15.37,2.93-5.12,.65-10.11,.98-14.95,.98-15.09,0-28.83-2.56-41.21-7.68-12.39-5.12-22.96-12.25-31.71-21.37-8.76-9.12-15.46-19.74-20.12-31.85-4.66-12.11-6.98-25.05-6.98-38.83s2.61-27.05,7.82-39.25c5.21-12.2,12.38-22.91,21.51-32.13,9.12-9.22,19.74-16.44,31.85-21.65,12.11-5.21,25.05-7.82,38.83-7.82,9.5,0,18.58,1.26,27.24,3.77,8.66,2.51,16.81,6.01,24.45,10.48l-2.79,4.75c-4.66-2.79-9.64-5.21-14.95-7.26-5.31-2.05-10.8-3.63-16.48-4.75-5.68-1.12-11.41-1.68-17.18-1.68-13.23,0-25.56,2.51-37.02,7.54-11.45,5.03-21.51,11.92-30.17,20.67-8.66,8.76-15.42,18.91-20.26,30.45-4.85,11.55-7.26,23.84-7.26,36.88s2.19,25.52,6.57,36.88c4.37,11.36,10.66,21.37,18.86,30.03,8.19,8.66,18.06,15.41,29.62,20.26,11.55,4.85,24.49,7.26,38.83,7.26,8.38,0,17.41-1.07,27.1-3.21,9.68-2.14,18.06-5.26,25.14-9.36v-63.98h-47.5v-5.31h53.08v72.92Z"/><g><path d="M2354.87,499.18h-3.34v65.91h-67.15v3.17h70.5v-69.08Z"/><path d="M2020.81,306.85h3.34v-65.91h67.15v-3.17h-70.5v69.08Z"/><path d="M2020.81,499.18h3.34v65.91h67.15v3.17h-70.5v-69.08Z"/><path d="M2285.79,237.77v3.34h65.91v67.15h3.17v-70.5h-69.08Z"/></g></g><g><g><path d="M534.1,739.72c-.64,.35-1.35,.68-2.14,.98-.79,.3-1.62,.57-2.5,.79-.88,.22-1.76,.39-2.64,.5-.88,.11-1.74,.17-2.57,.17-2.59,0-4.95-.44-7.08-1.32-2.13-.88-3.94-2.1-5.45-3.67-1.5-1.57-2.66-3.39-3.46-5.47-.8-2.08-1.2-4.3-1.2-6.67s.45-4.65,1.34-6.74c.9-2.09,2.13-3.94,3.7-5.52,1.57-1.58,3.39-2.82,5.47-3.72,2.08-.9,4.3-1.34,6.67-1.34,1.63,0,3.19,.22,4.68,.65,1.49,.43,2.89,1.03,4.2,1.8l-.48,.82c-.8-.48-1.66-.9-2.57-1.25-.91-.35-1.86-.62-2.83-.82-.98-.19-1.96-.29-2.95-.29-2.27,0-4.39,.43-6.36,1.3-1.97,.86-3.7,2.05-5.18,3.55s-2.65,3.25-3.48,5.23c-.83,1.98-1.25,4.1-1.25,6.34s.38,4.38,1.13,6.34c.75,1.95,1.83,3.67,3.24,5.16s3.1,2.65,5.09,3.48,4.21,1.25,6.67,1.25c1.44,0,2.99-.18,4.66-.55,1.66-.37,3.1-.9,4.32-1.61v-10.99h-8.16v-.91h9.12v12.53Z"/><path d="M553.82,741.79l13.97-35.23h.1l13.97,35.23h-1.06l-13.25-33.65,.62-.14-13.39,33.79h-.96Zm5.81-13.49h16.46l.1,.86h-16.66l.1-.86Z"/><path d="M602.54,708.09h.96v32.78h19.3v.91h-20.26v-33.7Z"/><path d="M642.91,708.09h20.11v.91h-19.15v15.31h17.28v.91h-17.28v15.65h19.82v.91h-20.78v-33.7Z"/><path d="M682.51,741.79l13.97-35.23h.1l13.97,35.23h-1.06l-13.25-33.65,.62-.14-13.39,33.79h-.96Zm5.81-13.49h16.46l.1,.86h-16.66l.1-.86Z"/><path d="M758.78,742.41l-26.88-32.59,.24-.48,.05,32.45h-.96v-34.22h.05l27.12,32.93-.48-.05v-32.35h.91v34.32h-.05Z"/><path d="M780.09,724.99c0-2.37,.45-4.6,1.34-6.7,.9-2.09,2.13-3.94,3.7-5.52,1.57-1.58,3.39-2.82,5.47-3.72s4.3-1.34,6.67-1.34,4.59,.45,6.67,1.34c2.08,.9,3.91,2.14,5.5,3.72s2.83,3.42,3.74,5.52c.91,2.1,1.37,4.33,1.37,6.7s-.46,4.59-1.37,6.67c-.91,2.08-2.16,3.9-3.74,5.47-1.58,1.57-3.42,2.8-5.5,3.7-2.08,.9-4.3,1.34-6.67,1.34s-4.59-.42-6.67-1.27c-2.08-.85-3.9-2.04-5.47-3.58-1.57-1.54-2.8-3.35-3.7-5.45-.9-2.09-1.34-4.39-1.34-6.89Z"/></g><g><path d="M829.61,744.2h-.63v12.5h-12.74v.6h13.37v-13.11Z"/><path d="M766.23,707.71h.63v-12.5h12.74v-.6h-13.37v13.11Z"/><path d="M766.23,744.2h.63v12.5h12.74v.6h-13.37v-13.11Z"/><path d="M816.5,694.61v.63h12.5v12.74h.6v-13.37h-13.11Z"/></g></g><path class="d" d="M1783.61,341.3c-4.27-9.81-10.12-18.44-17.54-25.86-7.43-7.43-16.01-13.24-25.76-17.43-9.75-4.2-20.17-6.31-31.27-6.31s-21.52,2.11-31.26,6.31c-9.75,4.19-18.3,10-25.64,17.43-2.7,2.72-5.18,5.6-7.45,8.64l29.61,41.85,37.56-53.1h.12v72.1c.21-.54,.42-2.08,.65-2.61,2.17-5.08,5.16-9.54,8.96-13.38,3.8-3.84,8.22-6.85,13.27-9.02,5.04-2.17,10.43-3.26,16.17-3.26,3.96,0,7.74,.53,11.35,1.57,3.61,1.05,7,2.5,10.18,4.36l-1.16,1.98c-1.94-1.16-4.02-2.17-6.23-3.02-2.21-.85-4.5-1.51-6.86-1.98-2.37-.46-4.76-.7-7.16-.7-5.51,0-10.65,1.05-15.42,3.14-4.77,2.1-8.96,4.97-12.57,8.62-3.61,3.64-6.42,7.87-8.43,12.68-1.41,3.36-2.33,6.88-2.75,10.54-.02,.14-.04,.27-.05,.41-.15,1.45-.23,2.91-.23,4.41,0,5.51,.91,10.63,2.74,15.36,1.82,4.73,4.44,8.9,7.85,12.51,3.41,3.61,7.52,6.42,12.33,8.44,4.81,2.01,10.21,3.02,16.18,3.02,1.87,0,3.83-.13,5.86-.39,3.32-2.42,6.46-5.09,9.41-8.01,2.32-2.29,4.48-4.7,6.49-7.23v-16.25h-19.78v-2.22h22.11v15.39c3.4-4.73,6.31-9.84,8.72-15.34,4.28-9.74,6.41-20.17,6.41-31.27s-2.13-21.55-6.41-31.38Zm-32.58,98.91c-6.28,0-12-1.07-17.16-3.2-5.16-2.13-9.56-5.1-13.21-8.9-3.65-3.8-6.44-8.22-8.38-13.27-1.94-5.04-2.91-10.43-2.91-16.17,0-1.79,.1-3.54,.31-5.26v-73.76l-35.33,49.52h-.23l-30.81-43.18c-1.58,2.25-3.04,4.58-4.4,6.99v61.28h-2.3v-56.88c-.63,1.28-1.23,2.59-1.8,3.92-4.2,9.83-6.29,20.29-6.29,31.38,0,11.7,2.09,22.46,6.29,32.28,4.2,9.83,9.98,18.33,17.33,25.53,7.34,7.2,15.89,12.79,25.64,16.76,9.74,3.98,20.17,5.96,31.26,5.96s21.52-2.1,31.27-6.3c4.45-1.92,8.66-4.16,12.63-6.74-.64,.03-1.28,.04-1.91,.04Zm-41.35-121.79v1.23l.23-.32-.23-.91Zm-35.38,47.51l-.52,.73h1.03l-.51-.73Z"/><path class="c" d="M2552.01,353.99h8.7c5.85,0,10.59-4.74,10.59-10.59v-30.64c0-5.85-4.74-10.59-10.59-10.59h0c-2.81,0-5.5-1.12-7.49-3.1l-6.75-6.75c-1.99-1.99-4.68-3.1-7.49-3.1h-23.11c-1.57,0-3.07,.62-4.18,1.73l-8.12,8.12c-1.99,1.99-4.68,3.1-7.49,3.1h0c-5.85,0-10.59,4.74-10.59,10.59v30.64c0,5.85,4.74,10.59,10.59,10.59h27.04c2.67,0,5.33-.35,7.92-1.04l3.86-1.03c9.89-3.02,16.91-12.64,15.94-23.72-.93-10.63-9.38-19.31-19.99-20.49-13.68-1.52-25.26,9.15-25.26,22.53,0,4.25,1.17,8.23,3.21,11.63"/><g><path class="d" d="M1612.61,485.71v-14.36h.02l6.92,9.83-.42-.06,6.9-9.77h.02v14.36h-.95v-12.13l.08,.47-5.86,8.25h-.04l-5.9-8.25,.16-.43v12.09h-.95Z"/><path class="d" d="M1630.79,485.71l5.93-14.66h.08l5.93,14.66h-1.09l-5.16-13.12,.67-.38-5.4,13.49h-.97Zm2.87-5.56h6.23l.28,.91h-6.75l.24-.91Z"/><path class="d" d="M1645.29,471.66h9.2v.93h-4.13v13.12h-.97v-13.12h-4.1v-.93Z"/><path class="d" d="M1659.31,471.66h8.67v.93h-7.7v5.58h6.92v.93h-6.92v5.68h7.97v.93h-8.94v-14.05Z"/><path class="d" d="M1672.55,478.7c0-.99,.18-1.92,.55-2.78,.37-.86,.88-1.63,1.54-2.29,.66-.67,1.42-1.19,2.29-1.56s1.79-.56,2.78-.56,1.92,.19,2.79,.56c.87,.38,1.64,.9,2.29,1.56,.66,.67,1.18,1.43,1.55,2.29,.38,.86,.56,1.79,.56,2.78s-.19,1.92-.56,2.78c-.38,.86-.89,1.63-1.55,2.29-.66,.66-1.42,1.17-2.29,1.54-.87,.37-1.8,.55-2.79,.55s-1.92-.18-2.78-.53-1.62-.86-2.29-1.5c-.66-.65-1.17-1.41-1.54-2.28s-.55-1.82-.55-2.85Zm.99,.02c0,.86,.16,1.66,.47,2.41,.32,.75,.76,1.41,1.33,1.98,.57,.57,1.22,1.01,1.97,1.34s1.54,.48,2.38,.48,1.68-.16,2.43-.48,1.41-.77,1.98-1.34c.57-.57,1.01-1.23,1.33-1.98,.32-.75,.48-1.56,.48-2.43s-.16-1.67-.48-2.42c-.32-.76-.77-1.42-1.33-2-.57-.57-1.23-1.03-1.98-1.35-.75-.33-1.56-.5-2.41-.5s-1.68,.17-2.43,.5c-.75,.34-1.41,.79-1.97,1.38-.56,.58-1,1.25-1.31,2.01-.31,.76-.46,1.56-.46,2.4Z"/><path class="d" d="M1710.14,484.72c-.24,.16-.52,.31-.86,.45-.34,.14-.7,.26-1.08,.37-.38,.11-.78,.19-1.18,.25s-.78,.09-1.14,.09c-1.11,0-2.11-.18-3-.54-.89-.36-1.65-.86-2.29-1.5-.63-.64-1.12-1.38-1.45-2.24-.34-.85-.5-1.77-.5-2.76,0-1.07,.19-2.05,.56-2.95,.38-.9,.89-1.67,1.55-2.32,.66-.65,1.42-1.16,2.29-1.51,.87-.36,1.79-.53,2.77-.53,.74,0,1.44,.09,2.09,.28s1.24,.43,1.77,.75l-.36,.87c-.3-.18-.65-.35-1.03-.49-.38-.14-.77-.25-1.18-.33s-.8-.12-1.2-.12c-.9,0-1.73,.16-2.49,.47-.77,.32-1.43,.76-2,1.33-.57,.57-1.01,1.23-1.33,2s-.47,1.6-.47,2.49,.15,1.68,.45,2.42,.72,1.4,1.27,1.96,1.2,1,1.97,1.31c.76,.31,1.62,.46,2.55,.46,.55,0,1.13-.07,1.74-.2,.61-.13,1.13-.32,1.56-.57v-3.9h-3.17v-.93h4.13v5.4Z"/><path class="d" d="M1714.45,485.71l5.94-14.66h.08l5.93,14.66h-1.09l-5.16-13.12,.67-.38-5.4,13.49h-.97Zm2.87-5.56h6.23l.28,.91h-6.75l.24-.91Z"/><path class="d" d="M1731.13,471.66h.97v13.12h7.7v.93h-8.66v-14.05Z"/><path class="d" d="M1744.54,471.66h8.67v.93h-7.7v5.58h6.92v.93h-6.92v5.68h7.97v.93h-8.94v-14.05Z"/><path class="d" d="M1757.44,485.71l5.94-14.66h.08l5.94,14.66h-1.09l-5.16-13.12,.67-.38-5.4,13.49h-.97Zm2.87-5.56h6.23l.28,.91h-6.75l.24-.91Z"/><path class="d" d="M1785.87,486.04l-11.08-12.48,.26-.2,.02,12.34h-.95v-14.34h.06l11.08,12.58-.26,.08-.02-12.36h.93v14.38h-.04Z"/><path class="d" d="M1790.97,478.7c0-.99,.18-1.92,.55-2.78,.37-.86,.88-1.63,1.54-2.29,.66-.67,1.42-1.19,2.29-1.56s1.79-.56,2.78-.56,1.92,.19,2.79,.56c.87,.38,1.64,.9,2.29,1.56,.66,.67,1.18,1.43,1.55,2.29,.38,.86,.56,1.79,.56,2.78s-.19,1.92-.56,2.78c-.38,.86-.89,1.63-1.55,2.29-.66,.66-1.42,1.17-2.29,1.54-.87,.37-1.8,.55-2.79,.55s-1.92-.18-2.78-.53-1.62-.86-2.29-1.5c-.66-.65-1.17-1.41-1.54-2.28s-.55-1.82-.55-2.85Zm.99,.02c0,.86,.16,1.66,.47,2.41,.32,.75,.76,1.41,1.33,1.98,.57,.57,1.22,1.01,1.97,1.34s1.54,.48,2.38,.48,1.68-.16,2.43-.48,1.41-.77,1.98-1.34c.57-.57,1.01-1.23,1.33-1.98,.32-.75,.48-1.56,.48-2.43s-.16-1.67-.48-2.42c-.32-.76-.77-1.42-1.33-2-.57-.57-1.23-1.03-1.98-1.35-.75-.33-1.56-.5-2.41-.5s-1.68,.17-2.43,.5c-.75,.34-1.41,.79-1.97,1.38-.56,.58-1,1.25-1.31,2.01-.31,.76-.46,1.56-.46,2.4Z"/></g><g><path class="d" d="M1671.76,514.71v-7.06h-1.29v-.36h1.29v-4.15c0-1.28,.18-2.17,.54-2.66,.36-.5,.91-.74,1.63-.74,.13,0,.26,.01,.39,.04,.13,.03,.26,.07,.4,.12l-.18,.28c-.07-.04-.15-.07-.25-.1-.1-.03-.21-.04-.35-.04-.62,0-1.08,.22-1.37,.66-.29,.44-.44,1.23-.44,2.36v4.23h2.57v.36h-2.57v7.06h-.4Z"/><path class="d" d="M1676.09,510.95c0-.71,.17-1.37,.52-1.96,.35-.59,.82-1.07,1.4-1.42,.59-.35,1.24-.52,1.97-.52s1.38,.17,1.98,.52,1.06,.82,1.41,1.42c.35,.59,.52,1.25,.52,1.96s-.17,1.38-.52,1.97-.82,1.05-1.41,1.39-1.25,.51-1.98,.51-1.38-.17-1.97-.5c-.59-.34-1.05-.79-1.4-1.38-.35-.58-.52-1.25-.52-2Zm.39,0c0,.66,.16,1.26,.46,1.79,.31,.53,.73,.96,1.27,1.28s1.12,.47,1.77,.47,1.23-.16,1.76-.47,.95-.74,1.27-1.28,.47-1.13,.47-1.79-.16-1.24-.47-1.77-.74-.96-1.27-1.29-1.11-.48-1.76-.48-1.27,.17-1.8,.51-.94,.78-1.25,1.33c-.3,.54-.46,1.11-.46,1.7Z"/><path class="d" d="M1687.61,503.96h.39v3.42h2.49v.34h-2.49v6.98h-.39v-6.98h-1.74v-.34h1.74v-3.42Z"/><path class="d" d="M1692.06,510.95c0-.71,.17-1.37,.52-1.96,.35-.59,.82-1.07,1.4-1.42s1.24-.52,1.97-.52,1.38,.17,1.98,.52c.59,.35,1.06,.82,1.41,1.42,.35,.59,.52,1.25,.52,1.96s-.17,1.38-.52,1.97-.82,1.05-1.41,1.39c-.59,.34-1.25,.51-1.98,.51s-1.38-.17-1.97-.5-1.05-.79-1.4-1.38c-.35-.58-.52-1.25-.52-2Zm.4,0c0,.66,.15,1.26,.46,1.79s.73,.96,1.27,1.28c.54,.32,1.12,.47,1.77,.47s1.23-.16,1.76-.47,.95-.74,1.27-1.28,.48-1.13,.48-1.79-.16-1.24-.48-1.77-.74-.96-1.27-1.29-1.11-.48-1.76-.48-1.27,.17-1.8,.51-.94,.78-1.25,1.33c-.3,.54-.46,1.11-.46,1.7Z"/><path class="d" d="M1705.92,518.31c-.33,0-.67-.04-1.02-.12s-.72-.23-1.11-.44c-.39-.22-.8-.54-1.24-.98l.22-.26c.65,.63,1.23,1.03,1.74,1.2s.98,.25,1.38,.25c.91,0,1.62-.14,2.12-.42,.5-.28,.85-.66,1.06-1.13,.21-.47,.32-.99,.35-1.55l.02-2.71,.12,.12c-.28,.76-.75,1.38-1.43,1.86s-1.43,.71-2.27,.71c-.71,0-1.36-.17-1.94-.51-.58-.34-1.05-.81-1.4-1.39-.35-.59-.52-1.24-.52-1.97,0-.76,.18-1.44,.54-2.03,.36-.59,.83-1.04,1.41-1.37,.59-.32,1.24-.48,1.95-.48,.79,0,1.51,.22,2.16,.66,.65,.44,1.11,1.01,1.4,1.69l-.06,.22,.12-2.41h.3v7.64c0,.58-.11,1.13-.34,1.65-.22,.52-.62,.95-1.19,1.29-.57,.34-1.36,.5-2.37,.5Zm-3.52-7.36c0,.66,.15,1.26,.46,1.79,.31,.53,.73,.96,1.27,1.28s1.12,.47,1.77,.47,1.24-.15,1.77-.46c.53-.31,.96-.71,1.28-1.22,.32-.5,.48-1.04,.5-1.62v-.85c-.11-.55-.33-1.05-.66-1.49-.34-.44-.75-.79-1.25-1.05-.49-.26-1.04-.39-1.63-.39-.65,0-1.24,.15-1.77,.45s-.96,.71-1.27,1.25c-.31,.53-.46,1.15-.46,1.85Z"/><path class="d" d="M1713.84,507.23l.06,2.33-.04-.22c.15-.47,.39-.88,.72-1.21,.34-.33,.73-.58,1.18-.76,.45-.18,.92-.27,1.4-.29l-.02,.36c-.58,.01-1.12,.15-1.6,.41-.49,.26-.88,.6-1.17,1.04-.29,.44-.44,.94-.44,1.5v4.31h-.4v-7.48h.3Z"/><path class="d" d="M1722.66,514.82c-.71,0-1.36-.17-1.94-.51s-1.04-.8-1.39-1.38-.52-1.23-.52-1.96c0-.83,.18-1.54,.53-2.12,.36-.58,.83-1.02,1.42-1.33,.59-.3,1.24-.45,1.97-.45,.78,0,1.49,.22,2.13,.66,.64,.44,1.1,1.01,1.39,1.71l-.04,.26,.1-2.47h.3v7.48h-.38v-2.55l.06,.28c-.13,.34-.32,.66-.55,.95-.24,.29-.51,.54-.83,.76-.32,.22-.66,.39-1.04,.5-.38,.12-.78,.18-1.2,.18Zm.04-.34c.65,0,1.23-.14,1.76-.44,.53-.29,.95-.69,1.27-1.2s.48-1.08,.49-1.73v-.81c-.11-.54-.33-1.03-.66-1.46-.34-.44-.75-.79-1.25-1.05s-1.03-.4-1.61-.4c-.65,0-1.24,.15-1.77,.44s-.96,.7-1.27,1.24c-.31,.53-.46,1.16-.46,1.87,0,.66,.16,1.26,.48,1.79,.32,.53,.74,.96,1.27,1.28s1.11,.47,1.76,.47Z"/><path class="d" d="M1730.73,514.71v-7.06h-1.29v-.36h1.29v-4.15c0-1.28,.18-2.17,.54-2.66,.36-.5,.91-.74,1.63-.74,.13,0,.26,.01,.4,.04,.13,.03,.26,.07,.4,.12l-.18,.28c-.07-.04-.15-.07-.25-.1-.1-.03-.21-.04-.35-.04-.62,0-1.08,.22-1.36,.66-.29,.44-.44,1.23-.44,2.36v4.23h2.57v.36h-2.57v7.06h-.4Z"/><path class="d" d="M1737.73,502.95l-1.82,2.63h-.38l1.76-2.63h.44Zm-1.66,4.27h.4v7.48h-.4v-7.48Z"/><path class="d" d="M1743.25,514.82c-.71,0-1.36-.17-1.94-.51s-1.04-.8-1.39-1.38-.52-1.23-.52-1.96c0-.83,.18-1.54,.53-2.12,.36-.58,.83-1.02,1.41-1.33,.59-.3,1.24-.45,1.97-.45,.78,0,1.49,.22,2.13,.66,.64,.44,1.1,1.01,1.39,1.71l-.04,.26,.1-2.47h.3v7.48h-.38v-2.55l.06,.28c-.13,.34-.32,.66-.55,.95s-.51,.54-.83,.76c-.32,.22-.66,.39-1.04,.5-.38,.12-.78,.18-1.2,.18Zm.04-.34c.65,0,1.23-.14,1.76-.44,.53-.29,.95-.69,1.27-1.2s.48-1.08,.5-1.73v-.81c-.11-.54-.33-1.03-.66-1.46-.34-.44-.75-.79-1.25-1.05-.49-.26-1.03-.4-1.61-.4-.65,0-1.24,.15-1.77,.44-.53,.29-.96,.7-1.27,1.24s-.46,1.16-.46,1.87c0,.66,.16,1.26,.47,1.79s.74,.96,1.27,1.28,1.12,.47,1.76,.47Z"/></g><g><path d="M2186.42,40.79h4.1v.48h-3.6v3.02h3.19v.47h-3.19v3.34h-.5v-7.32Z"/><path d="M2199.87,44.46c0-.52,.1-1,.29-1.45,.19-.45,.46-.85,.8-1.2s.74-.62,1.19-.81c.45-.2,.93-.29,1.45-.29s1,.1,1.45,.29c.45,.2,.85,.47,1.2,.81,.34,.35,.61,.75,.81,1.2,.2,.45,.29,.93,.29,1.45s-.1,1-.29,1.45c-.2,.45-.47,.85-.81,1.19-.34,.34-.74,.61-1.2,.8-.45,.19-.94,.29-1.45,.29s-1-.09-1.45-.28c-.45-.19-.85-.45-1.19-.78s-.61-.73-.8-1.19c-.19-.45-.29-.95-.29-1.49Zm.52,.01c0,.45,.08,.87,.25,1.26s.4,.74,.69,1.03c.29,.3,.64,.53,1.03,.7,.39,.17,.8,.25,1.24,.25s.88-.08,1.27-.25c.39-.17,.74-.4,1.03-.7,.3-.3,.53-.64,.7-1.03,.17-.39,.25-.81,.25-1.27s-.08-.87-.25-1.26c-.17-.4-.4-.74-.7-1.04-.3-.3-.64-.53-1.03-.71-.39-.17-.81-.26-1.26-.26s-.88,.09-1.27,.26c-.39,.18-.73,.41-1.03,.72-.29,.3-.52,.65-.68,1.05-.16,.4-.24,.81-.24,1.25Z"/><path d="M2216.52,40.79h4.8v.48h-2.16v6.84h-.51v-6.84h-2.13v-.48Z"/><path d="M2230.47,44.46c0-.52,.1-1,.29-1.45,.19-.45,.46-.85,.8-1.2s.74-.62,1.19-.81c.45-.2,.93-.29,1.45-.29s1,.1,1.45,.29c.45,.2,.85,.47,1.2,.81,.34,.35,.61,.75,.81,1.2,.2,.45,.29,.93,.29,1.45s-.1,1-.29,1.45c-.2,.45-.47,.85-.81,1.19-.34,.34-.74,.61-1.2,.8-.45,.19-.94,.29-1.45,.29s-1-.09-1.45-.28c-.45-.19-.85-.45-1.19-.78s-.61-.73-.8-1.19c-.19-.45-.29-.95-.29-1.49Zm.52,.01c0,.45,.08,.87,.25,1.26s.4,.74,.69,1.03c.29,.3,.64,.53,1.03,.7,.39,.17,.8,.25,1.24,.25s.88-.08,1.27-.25c.39-.17,.74-.4,1.03-.7,.3-.3,.53-.64,.7-1.03,.17-.39,.25-.81,.25-1.27s-.08-.87-.25-1.26c-.17-.4-.4-.74-.7-1.04-.3-.3-.64-.53-1.03-.71-.39-.17-.81-.26-1.26-.26s-.88,.09-1.27,.26c-.39,.18-.73,.41-1.03,.72-.29,.3-.52,.65-.68,1.05-.16,.4-.24,.81-.24,1.25Z"/><path d="M2253.61,47.59c-.12,.08-.27,.16-.45,.23-.18,.07-.36,.14-.56,.19s-.4,.1-.61,.13c-.21,.03-.41,.05-.59,.05-.58,0-1.1-.09-1.56-.28-.46-.19-.86-.45-1.19-.78s-.58-.72-.76-1.17c-.18-.44-.26-.92-.26-1.44,0-.56,.1-1.07,.29-1.54,.2-.47,.47-.87,.81-1.21,.34-.34,.74-.6,1.2-.79,.45-.19,.93-.28,1.44-.28,.39,0,.75,.05,1.09,.14,.34,.1,.65,.23,.92,.39l-.19,.45c-.16-.1-.34-.18-.54-.25-.2-.07-.4-.13-.61-.17-.21-.04-.42-.06-.62-.06-.47,0-.9,.08-1.3,.25-.4,.17-.75,.4-1.04,.69-.3,.3-.53,.64-.69,1.04-.17,.4-.25,.83-.25,1.3s.08,.88,.23,1.26,.38,.73,.66,1.02c.29,.29,.63,.52,1.03,.68s.84,.24,1.33,.24c.29,0,.59-.03,.91-.1s.59-.17,.82-.3v-2.03h-1.65v-.48h2.16v2.82Z"/><path d="M2265.65,40.79c.27,0,.55,.04,.82,.12,.27,.08,.52,.2,.74,.37s.4,.38,.54,.64c.14,.26,.21,.57,.21,.94,0,.28-.04,.54-.12,.8-.08,.26-.22,.49-.4,.7-.19,.21-.43,.37-.72,.5-.3,.12-.66,.19-1.09,.19h-1.13v3.07h-.5v-7.32h1.67Zm-.06,3.77c.36,0,.67-.05,.91-.15,.24-.1,.43-.24,.57-.4s.24-.35,.29-.54,.09-.39,.09-.57c0-.22-.04-.43-.12-.62s-.19-.36-.35-.51c-.15-.15-.33-.26-.55-.35-.21-.09-.45-.13-.71-.13h-1.24v3.28h1.1Zm1.05,.23l2.03,3.33h-.59l-2.04-3.32h.6Z"/><path d="M2278.12,48.11l3.09-7.64h.04l3.09,7.64h-.57l-2.69-6.84,.35-.2-2.82,7.03h-.5Zm1.5-2.9h3.25l.14,.47h-3.52l.12-.47Z"/><path d="M2294.29,40.79h4.1v.48h-3.6v3.02h3.19v.47h-3.19v3.34h-.5v-7.32Z"/><path d="M2308.5,40.79h.5v7.32h-.5v-7.32Zm1.53-1.79l-1.09,1.37h-.35l.9-1.37h.55Z"/><path d="M2318.95,48.11l3.09-7.64h.04l3.09,7.64h-.57l-2.69-6.84,.35-.2-2.82,7.03h-.5Zm1.5-2.9h3.25l.14,.47h-3.52l.12-.47Z"/></g><rect class="b" x="2563.71" y="268.95" width="16" height="97"/><line class="c" x1="2566.21" y1="262.54" x2="2566.21" y2="380.54"/><path d="M2687.94,476.28v-34.27h.05l15.94,22.66h-.43l15.94-22.66h.05v34.27h-.96v-31.92l.1,.38-14.88,20.98h-.1l-14.88-20.98,.14-.34v31.87h-.96Z"/><path d="M2716.16,533.13c-.67,.37-1.41,.71-2.23,1.02-.82,.32-1.68,.59-2.6,.83-.92,.23-1.83,.41-2.75,.52-.92,.12-1.81,.17-2.67,.17-2.7,0-5.16-.46-7.38-1.38-2.22-.92-4.11-2.19-5.68-3.82-1.57-1.63-2.77-3.53-3.6-5.7-.83-2.17-1.25-4.48-1.25-6.95s.47-4.84,1.4-7.02c.93-2.18,2.22-4.1,3.85-5.75,1.63-1.65,3.53-2.94,5.7-3.88,2.17-.93,4.48-1.4,6.95-1.4,1.7,0,3.32,.23,4.88,.67,1.55,.45,3.01,1.08,4.38,1.88l-.5,.85c-.83-.5-1.73-.93-2.68-1.3-.95-.37-1.93-.65-2.95-.85-1.02-.2-2.04-.3-3.08-.3-2.37,0-4.58,.45-6.62,1.35-2.05,.9-3.85,2.13-5.4,3.7-1.55,1.57-2.76,3.38-3.62,5.45-.87,2.07-1.3,4.27-1.3,6.6s.39,4.57,1.17,6.6c.78,2.03,1.91,3.83,3.38,5.38,1.47,1.55,3.23,2.76,5.3,3.62,2.07,.87,4.38,1.3,6.95,1.3,1.5,0,3.12-.19,4.85-.58,1.73-.38,3.23-.94,4.5-1.67v-11.45h-8.5v-.95h9.5v13.05Z"/><path class="c" d="M2646.13,523.41h8.7c5.85,0,10.59-4.74,10.59-10.59v-30.64c0-5.85-4.74-10.59-10.59-10.59h0c-2.81,0-5.5-1.12-7.49-3.1l-6.75-6.75c-1.99-1.99-4.68-3.1-7.49-3.1h-21.18c-2.81,0-5.5,1.12-7.49,3.1l-6.75,6.75c-1.99,1.99-4.68,3.1-7.49,3.1h0c-5.85,0-10.59,4.74-10.59,10.59v30.64c0,5.85,4.74,10.59,10.59,10.59h24.91c2.67,0,7.46-.35,10.04-1.04l3.86-1.03c10.08-3.08,17.17-12.99,15.88-24.34-1.17-10.34-9.59-18.73-19.93-19.87-13.68-1.52-25.26,9.15-25.26,22.53,0,4.25,1.17,8.23,3.21,11.63"/><rect class="b" x="2661.82" y="438.37" width="16" height="97"/><line class="c" x1="2664.32" y1="431.96" x2="2664.32" y2="549.96"/></svg>