<?xml version="1.0" encoding="UTF-8"?><svg xmlns="http://www.w3.org/2000/svg" viewBox="0 0 206 50.51"><g id="a"/><g id="b"><g id="c"><g><path d="M17.42,28.23c-.41,.23-.87,.44-1.38,.63-.51,.2-1.04,.37-1.61,.51-.57,.14-1.14,.25-1.7,.32-.57,.07-1.12,.11-1.66,.11-1.67,0-3.19-.28-4.56-.85-1.37-.57-2.54-1.36-3.51-2.37-.97-1.01-1.71-2.19-2.23-3.53-.52-1.34-.77-2.77-.77-4.3s.29-3,.87-4.35c.58-1.35,1.37-2.54,2.38-3.56,1.01-1.02,2.19-1.82,3.53-2.4,1.34-.58,2.77-.87,4.3-.87,1.05,0,2.06,.14,3.02,.42,.96,.28,1.86,.67,2.71,1.16l-.31,.53c-.52-.31-1.07-.58-1.66-.8-.59-.23-1.2-.4-1.83-.53-.63-.12-1.26-.19-1.9-.19-1.47,0-2.83,.28-4.1,.84-1.27,.56-2.38,1.32-3.34,2.29-.96,.97-1.71,2.09-2.24,3.37-.54,1.28-.8,2.64-.8,4.08s.24,2.83,.73,4.08c.48,1.26,1.18,2.37,2.09,3.33,.91,.96,2,1.71,3.28,2.24,1.28,.54,2.71,.8,4.3,.8,.93,0,1.93-.12,3-.36,1.07-.24,2-.58,2.79-1.04v-7.09h-5.26v-.59h5.88v8.08Z"/><path d="M30.14,29.56L39.15,6.85h.06l9.01,22.71h-.68L38.99,7.87l.4-.09-8.63,21.79h-.62Z"/><path d="M61.55,7.84h.62V28.97h12.44v.59h-13.06V7.84Z"/><path d="M87.57,7.84h12.97v.59h-12.35v9.87h11.14v.59h-11.14v10.09h12.78v.59h-13.4V7.84Z"/><path d="M113.1,29.56l9-22.71h.06l9.01,22.71h-.68l-8.54-21.69,.4-.09-8.63,21.79h-.62Z"/><path d="M162.28,29.96l-17.33-21.01,.15-.31,.03,20.92h-.62V7.5h.03l17.48,21.23-.31-.03V7.84h.59V29.96h-.03Z"/><path d="M176.01,18.73c0-1.53,.29-2.97,.87-4.32,.58-1.35,1.37-2.54,2.38-3.56,1.01-1.02,2.19-1.82,3.53-2.4,1.34-.58,2.77-.87,4.3-.87s2.96,.29,4.3,.87c1.34,.58,2.52,1.38,3.54,2.4s1.83,2.21,2.41,3.56c.59,1.35,.88,2.79,.88,4.32s-.29,2.96-.88,4.3c-.59,1.34-1.39,2.52-2.41,3.53s-2.2,1.81-3.54,2.38c-1.34,.58-2.78,.87-4.3,.87s-2.96-.27-4.3-.82c-1.34-.55-2.52-1.32-3.53-2.31-1.01-.99-1.81-2.16-2.38-3.51-.58-1.35-.87-2.83-.87-4.44Zm.62,.03c0,1.44,.27,2.8,.8,4.07,.54,1.27,1.28,2.38,2.23,3.34,.95,.96,2.05,1.71,3.31,2.24,1.26,.54,2.6,.8,4.02,.8s2.84-.27,4.12-.8c1.28-.54,2.4-1.28,3.37-2.24,.97-.96,1.73-2.07,2.29-3.34,.56-1.27,.84-2.64,.84-4.1s-.28-2.8-.84-4.07c-.56-1.27-1.31-2.39-2.27-3.36-.96-.97-2.07-1.73-3.34-2.29-1.27-.56-2.63-.84-4.07-.84s-2.86,.28-4.13,.85c-1.27,.57-2.38,1.35-3.33,2.34-.95,.99-1.69,2.12-2.21,3.39-.53,1.27-.79,2.6-.79,4.01Z"/></g><g><path d="M206,29.26h-.37v7.38h-7.52v.36h7.89v-7.73Z"/><path d="M168.61,7.73h.37V.36h7.52v-.36h-7.89V7.73Z"/><path d="M168.61,29.26h.37v7.38h7.52v.36h-7.89v-7.73Z"/><path d="M198.27,0V.37h7.38V7.89h.36V0h-7.73Z"/></g><g><path d="M15.68,40.79h4.1v.48h-3.6v3.02h3.19v.47h-3.19v3.34h-.5v-7.32Z"/><path d="M29.13,44.46c0-.52,.1-1,.29-1.45,.19-.45,.46-.85,.8-1.2s.74-.62,1.19-.81c.45-.2,.93-.29,1.45-.29s1,.1,1.45,.29c.45,.2,.85,.47,1.2,.81,.34,.35,.61,.75,.81,1.2,.2,.45,.29,.93,.29,1.45s-.1,1-.29,1.45c-.2,.45-.47,.85-.81,1.19-.34,.34-.74,.61-1.2,.8-.45,.19-.94,.29-1.45,.29s-1-.09-1.45-.28c-.45-.19-.85-.45-1.19-.78s-.61-.73-.8-1.19c-.19-.45-.29-.95-.29-1.49Zm.52,.01c0,.45,.08,.87,.25,1.26s.4,.74,.69,1.03c.29,.3,.64,.53,1.03,.7,.39,.17,.8,.25,1.24,.25s.88-.08,1.27-.25c.39-.17,.74-.4,1.03-.7,.3-.3,.53-.64,.7-1.03,.17-.39,.25-.81,.25-1.27s-.08-.87-.25-1.26c-.17-.4-.4-.74-.7-1.04-.3-.3-.64-.53-1.03-.71-.39-.17-.81-.26-1.26-.26s-.88,.09-1.27,.26c-.39,.18-.73,.41-1.03,.72-.29,.3-.52,.65-.68,1.05-.16,.4-.24,.81-.24,1.25Z"/><path d="M45.78,40.79h4.8v.48h-2.16v6.84h-.51v-6.84h-2.13v-.48Z"/><path d="M59.74,44.46c0-.52,.1-1,.29-1.45,.19-.45,.46-.85,.8-1.2s.74-.62,1.19-.81c.45-.2,.93-.29,1.45-.29s1,.1,1.45,.29c.45,.2,.85,.47,1.2,.81,.34,.35,.61,.75,.81,1.2,.2,.45,.29,.93,.29,1.45s-.1,1-.29,1.45c-.2,.45-.47,.85-.81,1.19-.34,.34-.74,.61-1.2,.8-.45,.19-.94,.29-1.45,.29s-1-.09-1.45-.28c-.45-.19-.85-.45-1.19-.78s-.61-.73-.8-1.19c-.19-.45-.29-.95-.29-1.49Zm.52,.01c0,.45,.08,.87,.25,1.26s.4,.74,.69,1.03c.29,.3,.64,.53,1.03,.7,.39,.17,.8,.25,1.24,.25s.88-.08,1.27-.25c.39-.17,.74-.4,1.03-.7,.3-.3,.53-.64,.7-1.03,.17-.39,.25-.81,.25-1.27s-.08-.87-.25-1.26c-.17-.4-.4-.74-.7-1.04-.3-.3-.64-.53-1.03-.71-.39-.17-.81-.26-1.26-.26s-.88,.09-1.27,.26c-.39,.18-.73,.41-1.03,.72-.29,.3-.52,.65-.68,1.05-.16,.4-.24,.81-.24,1.25Z"/><path d="M82.87,47.59c-.12,.08-.27,.16-.45,.23-.18,.07-.36,.14-.56,.19s-.4,.1-.61,.13c-.21,.03-.41,.05-.59,.05-.58,0-1.1-.09-1.56-.28-.46-.19-.86-.45-1.19-.78s-.58-.72-.76-1.17c-.18-.44-.26-.92-.26-1.44,0-.56,.1-1.07,.29-1.54,.2-.47,.47-.87,.81-1.21,.34-.34,.74-.6,1.2-.79,.45-.19,.93-.28,1.44-.28,.39,0,.75,.05,1.09,.14,.34,.1,.65,.23,.92,.39l-.19,.45c-.16-.1-.34-.18-.54-.25-.2-.07-.4-.13-.61-.17-.21-.04-.42-.06-.62-.06-.47,0-.9,.08-1.3,.25-.4,.17-.75,.4-1.04,.69-.3,.3-.53,.64-.69,1.04-.17,.4-.25,.83-.25,1.3s.08,.88,.23,1.26,.38,.73,.66,1.02c.29,.29,.63,.52,1.03,.68s.84,.24,1.33,.24c.29,0,.59-.03,.91-.1s.59-.17,.82-.3v-2.03h-1.65v-.48h2.16v2.82Z"/><path d="M94.91,40.79c.27,0,.55,.04,.82,.12,.27,.08,.52,.2,.74,.37s.4,.38,.54,.64c.14,.26,.21,.57,.21,.94,0,.28-.04,.54-.12,.8-.08,.26-.22,.49-.4,.7-.19,.21-.43,.37-.72,.5-.3,.12-.66,.19-1.09,.19h-1.13v3.07h-.5v-7.32h1.67Zm-.06,3.77c.36,0,.67-.05,.91-.15,.24-.1,.43-.24,.57-.4s.24-.35,.29-.54,.09-.39,.09-.57c0-.22-.04-.43-.12-.62s-.19-.36-.35-.51c-.15-.15-.33-.26-.55-.35-.21-.09-.45-.13-.71-.13h-1.24v3.28h1.1Zm1.05,.23l2.03,3.33h-.59l-2.04-3.32h.6Z"/><path d="M107.38,48.11l3.09-7.64h.04l3.09,7.64h-.57l-2.69-6.84,.35-.2-2.82,7.03h-.5Zm1.5-2.9h3.25l.14,.47h-3.52l.12-.47Z"/><path d="M123.56,40.79h4.1v.48h-3.6v3.02h3.19v.47h-3.19v3.34h-.5v-7.32Z"/><path d="M137.77,40.79h.5v7.32h-.5v-7.32Zm1.53-1.79l-1.09,1.37h-.35l.9-1.37h.55Z"/><path d="M148.22,48.11l3.09-7.64h.04l3.09,7.64h-.57l-2.69-6.84,.35-.2-2.82,7.03h-.5Zm1.5-2.9h3.25l.14,.47h-3.52l.12-.47Z"/></g></g></g></svg>